<svg xmlns="http://www.w3.org/2000/svg" viewBox="0 0 500 500"><g id="freepik--Tree--inject-31"><polygon points="138.58 87.98 142.38 95.69 150.89 96.92 144.73 102.92 146.19 111.39 138.58 107.39 130.97 111.39 132.43 102.92 126.27 96.92 134.78 95.69 138.58 87.98" style="fill:#DBDBDB"></polygon><rect x="124.39" y="279.51" width="29.46" height="82.59" transform="translate(278.23 641.61) rotate(180)" style="fill:#DBDBDB"></rect><rect x="124.39" y="279.51" width="29.46" height="82.59" transform="translate(278.23 641.61) rotate(180)" style="opacity:0.2;isolation:isolate"></rect><path d="M175.29,223.42q2,5.51,4.09,11c6.41,16.85,13.15,33.61,20.62,50,3.77,8.27,7.69,16.51,12.24,24.38,2.26,3.9,4.77,6.56,4.08,11.31A17.69,17.69,0,0,1,207,333.35a17.51,17.51,0,0,1-19.19-2.79A16.82,16.82,0,0,1,156.45,335a19.47,19.47,0,0,1-35.24,3.25c-4.49,4.39-10,8.35-16.24,8.66s-13-4.48-12.82-10.75a13.11,13.11,0,0,1-20.23-8.68,9.13,9.13,0,0,1-10.28-2.11c-5.84-6.47,1-14.5,4.48-20.2q6.7-11,12.89-22.37c9.91-18.23,19.45-37.39,24.54-57.61Z" style="fill:#DBDBDB"></path><path d="M175.29,223.42q2,5.51,4.09,11c6.41,16.85,13.15,33.61,20.62,50,3.77,8.27,7.69,16.51,12.24,24.38,2.26,3.9,4.77,6.56,4.08,11.31A17.69,17.69,0,0,1,207,333.35a17.51,17.51,0,0,1-19.19-2.79A16.82,16.82,0,0,1,156.45,335a19.47,19.47,0,0,1-35.24,3.25c-4.49,4.39-10,8.35-16.24,8.66s-13-4.48-12.82-10.75a13.11,13.11,0,0,1-20.23-8.68,9.13,9.13,0,0,1-10.28-2.11c-5.84-6.47,1-14.5,4.48-20.2q6.7-11,12.89-22.37c9.91-18.23,19.45-37.39,24.54-57.61Z" style="fill:#fff;opacity:0.2;isolation:isolate"></path><path d="M121.24,301.85c-13.6,0-28.32-4.56-42.86-17.35A1,1,0,1,1,79.7,283c18,15.89,38.37,20.6,60.38,14,28.06-8.41,48.32-32,49.33-34.75a1,1,0,0,1,.61-1,1,1,0,0,1,1.31.54c.91,2.17-10.2,14.05-22.37,22.76C158,292.46,140.77,301.85,121.24,301.85Zm68.24-39.26h0Zm0-.42Z" style="fill:#DBDBDB"></path><polygon points="162.63 287.65 162.14 290.09 159.85 291.06 162.01 292.28 162.23 294.75 164.06 293.07 166.48 293.63 165.45 291.37 166.72 289.24 164.26 289.52 162.63 287.65" style="fill:#DBDBDB"></polygon><polygon points="99.17 297.36 97.2 298.86 94.84 298.09 95.66 300.43 94.2 302.44 96.68 302.38 98.14 304.39 98.85 302.01 101.21 301.25 99.17 299.84 99.17 297.36" style="fill:#DBDBDB"></polygon><polygon points="107.11 409.62 171.12 409.62 181.12 362.08 97.11 362.08 107.11 409.62"></polygon><polygon points="107.11 409.62 171.12 409.62 181.12 362.08 97.11 362.08 107.11 409.62" style="fill:#fafafa;opacity:0.4"></polygon><rect x="92.51" y="360.22" width="93.22" height="8.09" rx="2.58" transform="translate(278.23 728.53) rotate(180)" style="fill:#263238"></rect><path d="M81,245.37a14.16,14.16,0,0,1,1-2.05A564.84,564.84,0,0,0,110.91,186L131.43,190v2.88c.43-1.94.66-3,.66-3l36.81-2.32c4.48,12.54,11.08,24.34,18,35.66,2.66,4.33,5.39,8.63,8.27,12.82,3,4.35,6.42,8.24,1.15,13-2.45,2.21-6.85,2.32-8.76-.37-.19,3.87-1.22,8-4.1,10.58s-8,3-10.37-.1c-.24,5.69-4.09,11.26-9.58,12.82s-12.08-1.64-13.66-7.11c-1.18,4-4.49,7.52-8.61,8.16s-8.72-2.24-9.25-6.38a9.68,9.68,0,0,1-19-3.25A9.19,9.19,0,0,1,98,253.07c-3.68,2.64-8.17,5.42-12.45,3.91a8.1,8.1,0,0,1-5-5.91A10,10,0,0,1,81,245.37Z" style="fill:#DBDBDB"></path><path d="M81,245.37a14.16,14.16,0,0,1,1-2.05A564.84,564.84,0,0,0,110.91,186L131.43,190v2.88c.43-1.94.66-3,.66-3l36.81-2.32c4.48,12.54,11.08,24.34,18,35.66,2.66,4.33,5.39,8.63,8.27,12.82,3,4.35,6.42,8.24,1.15,13-2.45,2.21-6.85,2.32-8.76-.37-.19,3.87-1.22,8-4.1,10.58s-8,3-10.37-.1c-.24,5.69-4.09,11.26-9.58,12.82s-12.08-1.64-13.66-7.11c-1.18,4-4.49,7.52-8.61,8.16s-8.72-2.24-9.25-6.38a9.68,9.68,0,0,1-19-3.25A9.19,9.19,0,0,1,98,253.07c-3.68,2.64-8.17,5.42-12.45,3.91a8.1,8.1,0,0,1-5-5.91A10,10,0,0,1,81,245.37Z" style="fill:#fff;opacity:0.4;isolation:isolate"></path><path d="M114.76,241.9c-10.05,0-19.15-3.08-25.44-11.4a1,1,0,1,1,1.59-1.21c5.28,7,13.28,10.53,23.78,10.55h.11c27.84,0,63.6-24,66-26.76a1,1,0,0,1,1.9.17c.12.56.3,1.41-8.77,7.14A183.3,183.3,0,0,1,153,231.71C141.24,237.12,127.27,241.9,114.76,241.9Zm66-28.23h0Zm0,0Z" style="fill:#DBDBDB"></path><polygon points="130.82 238.84 130 241.18 127.61 241.83 129.58 243.34 129.45 245.81 131.5 244.4 133.81 245.28 133.1 242.91 134.66 240.97 132.18 240.91 130.82 238.84" style="fill:#DBDBDB"></polygon><path d="M158.34,150.78c.43,0,3.36,8.2,3.6,8.77,3.44,8.19,7,16.33,10.86,24.34,1.91,4,3.88,7.91,6.06,11.74.89,1.57,1.8,3.13,2.8,4.63,1.36,2,3.4,3.51.61,5.56a9.13,9.13,0,0,1-3.55,1.39,11.51,11.51,0,0,1-4.48.3,4.89,4.89,0,0,1-3.58-2.48,25.62,25.62,0,0,1-3.51,8.15,10.31,10.31,0,0,1-7.34,4.54c-3,.2-6.13-1.67-6.81-4.56a19.21,19.21,0,0,1-5,5,8.3,8.3,0,0,1-6.81,1.09,5.37,5.37,0,0,1-3.79-5.38,9.28,9.28,0,0,1-8.2,4.91,7.28,7.28,0,0,1-6.86-6.17,8.86,8.86,0,0,1-16.48-5.26,5.88,5.88,0,0,1-5.67,1.27,4.13,4.13,0,0,1-2.64-3.54c-.05-2.27,2.62-5.23,3.73-7.1q3.54-6,6.79-12.08c5.44-10.23,10.55-20.9,13.57-32.12Z" style="fill:#DBDBDB"></path><path d="M158.34,150.78c.43,0,3.36,8.2,3.6,8.77,3.44,8.19,7,16.33,10.86,24.34,1.91,4,3.88,7.91,6.06,11.74.89,1.57,1.8,3.13,2.8,4.63,1.36,2,3.4,3.51.61,5.56a9.13,9.13,0,0,1-3.55,1.39,11.51,11.51,0,0,1-4.48.3,4.89,4.89,0,0,1-3.58-2.48,25.62,25.62,0,0,1-3.51,8.15,10.31,10.31,0,0,1-7.34,4.54c-3,.2-6.13-1.67-6.81-4.56a19.21,19.21,0,0,1-5,5,8.3,8.3,0,0,1-6.81,1.09,5.37,5.37,0,0,1-3.79-5.38,9.28,9.28,0,0,1-8.2,4.91,7.28,7.28,0,0,1-6.86-6.17,8.86,8.86,0,0,1-16.48-5.26,5.88,5.88,0,0,1-5.67,1.27,4.13,4.13,0,0,1-2.64-3.54c-.05-2.27,2.62-5.23,3.73-7.1q3.54-6,6.79-12.08c5.44-10.23,10.55-20.9,13.57-32.12Z" style="fill:#fff;opacity:0.6000000000000001;isolation:isolate"></path><path d="M126.14,198.58c-7.33,0-14.35-2.64-20.93-7.88a1,1,0,0,1,1.25-1.57c7.48,6,15.54,8.36,24,7.13,19.93-2.91,35.65-25.21,35.81-25.44a1,1,0,1,1,1.64,1.14c-.66.95-16.36,23.23-37.16,26.28A32.16,32.16,0,0,1,126.14,198.58Z" style="fill:#DBDBDB"></path><polygon points="138.22 195.63 137.13 197.85 134.67 198.21 136.45 199.94 136.03 202.38 138.22 201.23 140.42 202.38 140 199.94 141.78 198.21 139.32 197.85 138.22 195.63" style="fill:#DBDBDB"></polygon><path d="M154.06,191.6l2.41,4.89c-.89,3.85-2.36,4.79-1.62,7.26a1.85,1.85,0,0,0,2.34,1.36,4.36,4.36,0,0,0,1.59-1.26,17.22,17.22,0,0,0,3.05-5.07,16.94,16.94,0,0,0,.53-1.85,3.14,3.14,0,0,0-.36-2.38c-1.25-2-2.49-4.15-3.75-6.13C156.57,188.73,154.05,191.73,154.06,191.6Z" style="fill:#DBDBDB"></path><path d="M162.36,196.93a15.91,15.91,0,0,1-.5,1.79,4.54,4.54,0,0,1-.91-2.42,4.76,4.76,0,0,1,.54-2.58l.51.83A3.14,3.14,0,0,1,162.36,196.93Z" style="fill:none"></path><path d="M161.86,198.72l0,.06a17.2,17.2,0,0,1-3,5,4.56,4.56,0,0,1-2-.78,5.32,5.32,0,0,1-1.81-2.21h0a37.71,37.71,0,0,0,1.32-3.68,1.69,1.69,0,0,0-.12-1.21l-2.13-4.32c.1,0,2.54-2.88,4.19-3.18,1.09,1.71,2.16,3.53,3.24,5.3a4.76,4.76,0,0,0-.54,2.58A4.54,4.54,0,0,0,161.86,198.72Z" style="fill:#263238;opacity:0.2"></path><path d="M158.82,203.8l0,0a4.21,4.21,0,0,1-1.6,1.26,1.83,1.83,0,0,1-2.32-1.32,4.25,4.25,0,0,1,.13-3A5.32,5.32,0,0,0,156.8,203,4.56,4.56,0,0,0,158.82,203.8Z" style="fill:none"></path><path d="M170.16,181.15,167.75,186c.89,3.85,2.35,4.79,1.62,7.26a1.85,1.85,0,0,1-2.34,1.36,4.28,4.28,0,0,1-1.59-1.26,16.68,16.68,0,0,1-3.05-5.07,14.46,14.46,0,0,1-.54-1.85,3.19,3.19,0,0,1,.37-2.38c1.25-2,2.49-4.15,3.75-6.13C167.65,178.28,170.17,181.28,170.16,181.15Z" style="fill:#DBDBDB"></path><path d="M161.85,186.48a18.29,18.29,0,0,0,.51,1.79,4.54,4.54,0,0,0,.91-2.42,4.76,4.76,0,0,0-.54-2.58l-.51.83A3.14,3.14,0,0,0,161.85,186.48Z" style="fill:none"></path><path d="M162.36,188.27l0,.06a17,17,0,0,0,3,5,4.75,4.75,0,0,0,2-.79,5.32,5.32,0,0,0,1.81-2.21h0a34.39,34.39,0,0,1-1.32-3.68,1.74,1.74,0,0,1,.11-1.21l2.14-4.31c-.1,0-2.54-2.89-4.19-3.19-1.09,1.71-2.16,3.53-3.24,5.3a4.76,4.76,0,0,1,.54,2.58A4.54,4.54,0,0,1,162.36,188.27Z" style="fill:#fff;opacity:0.7000000000000001"></path><path d="M161.86,198.72l0,.06a17.2,17.2,0,0,1-3,5,4.56,4.56,0,0,1-2-.78,5.32,5.32,0,0,1-1.81-2.21h0a37.71,37.71,0,0,0,1.32-3.68,1.69,1.69,0,0,0-.12-1.21l-2.13-4.32c.1,0,2.54-2.88,4.19-3.18,1.09,1.71,2.16,3.53,3.24,5.3a4.76,4.76,0,0,0-.54,2.58A4.54,4.54,0,0,0,161.86,198.72Z" style="fill:#263238;opacity:0.2"></path><path d="M162.36,188.27l0,.06a17,17,0,0,0,3,5,4.75,4.75,0,0,0,2-.79,5.32,5.32,0,0,0,1.81-2.21h0a34.39,34.39,0,0,1-1.32-3.68,1.74,1.74,0,0,1,.11-1.21l2.14-4.31c-.1,0-2.54-2.89-4.19-3.19-1.09,1.71-2.16,3.53-3.24,5.3a4.76,4.76,0,0,1,.54,2.58A4.54,4.54,0,0,1,162.36,188.27Z" style="fill:#fff;opacity:0.2"></path><path d="M165.4,193.36l0,0a4.12,4.12,0,0,0,1.6,1.26,1.82,1.82,0,0,0,2.32-1.32,4.25,4.25,0,0,0-.13-3,5.32,5.32,0,0,1-1.81,2.21A4.75,4.75,0,0,1,165.4,193.36Z" style="fill:none"></path><path d="M72.68,307.85l2.42,4.89c-.89,3.85-2.36,4.79-1.63,7.26a1.86,1.86,0,0,0,2.35,1.36,4.33,4.33,0,0,0,1.58-1.26A14.94,14.94,0,0,0,81,313.18a3.13,3.13,0,0,0-.36-2.38c-1.26-2-2.49-4.15-3.76-6.13C75.19,305,72.68,308,72.68,307.85Z" style="fill:#DBDBDB"></path><path d="M81,313.18a15.87,15.87,0,0,1-.51,1.79,4.62,4.62,0,0,1-.91-2.42,4.76,4.76,0,0,1,.55-2.58l.51.83A3.14,3.14,0,0,1,81,313.18Z" style="fill:none"></path><path d="M80.48,315l0,.06a17,17,0,0,1-3,5,4.52,4.52,0,0,1-2-.78,5.34,5.34,0,0,1-1.82-2.21h0a36.71,36.71,0,0,0,1.33-3.69,1.72,1.72,0,0,0-.12-1.2l-2.13-4.32c.1,0,2.54-2.88,4.18-3.18C78,306.38,79,308.2,80.12,310a4.76,4.76,0,0,0-.55,2.58A4.62,4.62,0,0,0,80.48,315Z" style="fill:#263238;opacity:0.2"></path><path d="M77.44,320.05l0,.05a4.21,4.21,0,0,1-1.6,1.26A1.82,1.82,0,0,1,73.49,320a4.25,4.25,0,0,1,.12-3,5.34,5.34,0,0,0,1.82,2.21A4.52,4.52,0,0,0,77.44,320.05Z" style="fill:none"></path><path d="M88.79,297.4l-2.42,4.89c.89,3.85,2.36,4.79,1.63,7.26a1.86,1.86,0,0,1-2.35,1.36,4.25,4.25,0,0,1-1.58-1.26A17,17,0,0,1,81,304.58a16.32,16.32,0,0,1-.53-1.85,3.14,3.14,0,0,1,.36-2.38c1.25-2,2.49-4.15,3.75-6.13C86.28,294.53,88.79,297.53,88.79,297.4Z" style="fill:#DBDBDB"></path><path d="M80.48,302.73a15.87,15.87,0,0,0,.51,1.79,4.62,4.62,0,0,0,.91-2.42,4.76,4.76,0,0,0-.55-2.58l-.51.83A3.14,3.14,0,0,0,80.48,302.73Z" style="fill:none"></path><path d="M81,304.52l0,.06a17.06,17.06,0,0,0,3,5,4.71,4.71,0,0,0,2-.79,5.34,5.34,0,0,0,1.82-2.21h0a36.37,36.37,0,0,1-1.33-3.68,1.74,1.74,0,0,1,.12-1.21l2.13-4.32c-.1,0-2.54-2.88-4.19-3.18-1.08,1.71-2.16,3.53-3.24,5.3a4.76,4.76,0,0,1,.55,2.58A4.62,4.62,0,0,1,81,304.52Z" style="fill:#fff;opacity:0.7000000000000001"></path><path d="M80.48,315l0,.06a17,17,0,0,1-3,5,4.52,4.52,0,0,1-2-.78,5.34,5.34,0,0,1-1.82-2.21h0a36.71,36.71,0,0,0,1.33-3.69,1.72,1.72,0,0,0-.12-1.2l-2.13-4.32c.1,0,2.54-2.88,4.18-3.18C78,306.38,79,308.2,80.12,310a4.76,4.76,0,0,0-.55,2.58A4.62,4.62,0,0,0,80.48,315Z" style="fill:#263238;opacity:0.2"></path><path d="M81,304.52l0,.06a17.06,17.06,0,0,0,3,5,4.71,4.71,0,0,0,2-.79,5.34,5.34,0,0,0,1.82-2.21h0a36.37,36.37,0,0,1-1.33-3.68,1.74,1.74,0,0,1,.12-1.21l2.13-4.32c-.1,0-2.54-2.88-4.19-3.18-1.08,1.71-2.16,3.53-3.24,5.3a4.76,4.76,0,0,1,.55,2.58A4.62,4.62,0,0,1,81,304.52Z" style="fill:#263238;opacity:0.2"></path><path d="M84,309.61l0,0a4.12,4.12,0,0,0,1.6,1.26A1.81,1.81,0,0,0,88,309.59a4.26,4.26,0,0,0-.12-3A5.34,5.34,0,0,1,86,308.82,4.71,4.71,0,0,1,84,309.61Z" style="fill:none"></path><path d="M139.14,107.63c.15.42-.79,2-.94,2.41-.95,2.38-1.95,4.73-3,7.08-3.85,8.87-8.06,17.58-12.5,26.17q-4.4,8.52-9.11,16.89c-1.48,2.63-4,5.63-4.09,8.58a7.38,7.38,0,0,0,3.57,6.78,7.22,7.22,0,0,0,8.3-1c-.29,3.82,3.34,7.29,7.16,7.28s7.27-3.08,8.22-6.79c.81,3,4.5,4.56,7.48,3.72s5.14-3.55,6.12-6.49c.8,1.64,2.91,2.23,4.73,2.06a9.13,9.13,0,0,0,7.89-7.43c-.18,1.14,11.1,2.68,7.2-3.17-1.71-2.57-3.41-5.15-5.07-7.74-5.52-8.6-10.82-17.35-15.7-26.33A160.28,160.28,0,0,1,139.14,107.63Z" style="fill:#DBDBDB"></path><path d="M139.14,107.63c.15.42-.79,2-.94,2.41-.95,2.38-1.95,4.73-3,7.08-3.85,8.87-8.06,17.58-12.5,26.17q-4.4,8.52-9.11,16.89c-1.48,2.63-4,5.63-4.09,8.58a7.38,7.38,0,0,0,3.57,6.78,7.22,7.22,0,0,0,8.3-1c-.29,3.82,3.34,7.29,7.16,7.28s7.27-3.08,8.22-6.79c.81,3,4.5,4.56,7.48,3.72s5.14-3.55,6.12-6.49c.8,1.64,2.91,2.23,4.73,2.06a9.13,9.13,0,0,0,7.89-7.43c-.18,1.14,11.1,2.68,7.2-3.17-1.71-2.57-3.41-5.15-5.07-7.74-5.52-8.6-10.82-17.35-15.7-26.33A160.28,160.28,0,0,1,139.14,107.63Z" style="fill:#fff;opacity:0.8"></path><path d="M126.07,145a19,19,0,0,1-3.73-.36,1,1,0,1,1,.38-2c13.56,2.66,26.58-12.43,26.71-12.58a1,1,0,0,1,1.52,1.3C150.44,132,139.24,145,126.07,145Z" style="fill:#DBDBDB"></path><polygon points="134.67 142.46 133.57 144.69 131.12 145.04 132.89 146.78 132.47 149.22 134.67 148.07 136.87 149.22 136.45 146.78 138.22 145.04 135.77 144.69 134.67 142.46" style="fill:#DBDBDB"></polygon><ellipse cx="113.21" cy="305.42" rx="4.86" ry="5.34" style="fill:#DBDBDB"></ellipse><path d="M104.55,243.67a3.24,3.24,0,1,1-3.23-3.55A3.4,3.4,0,0,1,104.55,243.67Z" style="fill:#DBDBDB"></path><path d="M159.06,248.59a4.88,4.88,0,1,1-4.85-5.34A5.11,5.11,0,0,1,159.06,248.59Z" style="fill:#DBDBDB"></path><path d="M147.2,159.32a2.5,2.5,0,1,1-2.49-2.74A2.62,2.62,0,0,1,147.2,159.32Z" style="fill:#DBDBDB"></path></g><g id="freepik--character-1--inject-31"><path d="M248.23,206c1.53.77,3.46-.22,4.58-1.52a11.35,11.35,0,0,0,2.09-4.63c2.1-8.25-7.39-24.46-7.83-26.83-2.27.27-4,1.54-6,2.66.31,5.82,2.91,9.8,3.23,15.63Z" style="fill:#DBDBDB"></path><g style="opacity:0.1"><path d="M248.23,206c1.53.77,3.46-.22,4.58-1.52a11.35,11.35,0,0,0,2.09-4.63c2.1-8.25-7.39-24.46-7.83-26.83-2.27.27-4,1.54-6,2.66.31,5.82,2.91,9.8,3.23,15.63Z"></path></g><path d="M226.34,168.9a8.51,8.51,0,0,1,7.15,1.91,25.21,25.21,0,0,1,4.91,5.86c5.45,8,11,16.35,13,25.85.61,2.87-3.95,4.58-6.84,4.07a13,13,0,0,1-7.2-4.33,34.9,34.9,0,0,1-4.62-7.18C228.64,187.2,225.58,177.77,226.34,168.9Z" style="fill:#DBDBDB"></path><path d="M226.34,168.9a8.51,8.51,0,0,1,7.15,1.91,25.21,25.21,0,0,1,4.91,5.86c5.45,8,11,16.35,13,25.85.61,2.87-3.95,4.58-6.84,4.07a13,13,0,0,1-7.2-4.33,34.9,34.9,0,0,1-4.62-7.18C228.64,187.2,225.58,177.77,226.34,168.9Z" style="opacity:0.1"></path><polygon points="127.04 187.45 127.19 187.44 127.18 187.41 127.2 187.41 127.19 187.36 127.04 187.45" style="fill:#263238"></polygon><polygon points="187.29 179.43 186.73 179.45 146.38 178.23 127.51 187.03 127.18 187.02 133.62 231.56 171.99 232.72 192.85 223.09 187.29 179.43" style="fill:#DBDBDB"></polygon><polygon points="187.29 179.43 186.73 179.45 146.38 178.23 127.51 187.03 127.18 187.02 133.62 231.56 171.99 232.72 192.85 223.09 187.29 179.43" style="opacity:0.2;isolation:isolate"></polygon><polygon points="165.52 188.03 171.99 232.72 192.85 223.09 187 179.46 165.52 188.03" style="opacity:0.2;isolation:isolate"></polygon><polygon points="145.46 215.17 145.48 217.7 147.25 219.32 145.23 219.88 144.64 222.24 143.37 220.06 141.23 219.88 142.47 217.98 141.74 215.52 143.78 216.52 145.46 215.17" style="fill:#fff;opacity:0.2"></polygon><polygon points="138.75 224.36 138.76 225.84 139.8 226.79 138.62 227.12 138.27 228.5 137.53 227.22 136.28 227.12 137 226 136.57 224.56 137.77 225.15 138.75 224.36" style="fill:#fff;opacity:0.2"></polygon><polygon points="164.6 208.39 164.61 209.87 165.65 210.82 164.46 211.15 164.12 212.52 163.37 211.25 162.12 211.15 162.85 210.03 162.42 208.59 163.61 209.18 164.6 208.39" style="fill:#fff;opacity:0.2"></polygon><polygon points="139.63 198.66 141.07 201.71 143.88 202.27 142.02 204.56 142.71 207.88 140.12 206.24 137.72 207.73 137.99 204.43 135.82 202.03 138.57 201.63 139.63 198.66" style="fill:#fff;opacity:0.2"></polygon><polygon points="157.93 189.29 160.57 190.8 162.9 189.18 162.76 192.5 165.01 194.8 162.28 195.34 161.34 198.38 159.8 195.4 156.97 194.97 158.74 192.59 157.93 189.29" style="fill:#fff;opacity:0.2"></polygon><polygon points="164.61 219.88 166.06 222.93 168.88 223.5 167.01 225.78 167.7 229.1 165.11 227.46 162.72 228.95 162.98 225.65 160.81 223.25 163.56 222.85 164.61 219.88" style="fill:#fff;opacity:0.2"></polygon><path d="M138.42,211.7a3.25,3.25,0,0,1-1.37,2.78c-1.38.88-3.23.18-4.11-1.56a4,4,0,0,1,.17-4.07,4.3,4.3,0,0,0,.47,2c.89,1.74,2.73,2.44,4.11,1.56A2.67,2.67,0,0,0,138.42,211.7Z" style="fill:#fff;opacity:0.2"></path><path d="M156.46,218.89a3.07,3.07,0,0,1-2.7-1.4,3.94,3.94,0,0,1,.16-5,2.56,2.56,0,0,1,3.43-.11,2.39,2.39,0,0,0-1.51.71,3.94,3.94,0,0,0-.15,5A3.68,3.68,0,0,0,156.46,218.89Z" style="fill:#fff;opacity:0.2"></path><path d="M130,194a3.78,3.78,0,0,1,.59-3.22,2.65,2.65,0,0,1,4.2.14,4.22,4.22,0,0,1,.83,4.07,4.2,4.2,0,0,0-.92-1.79,2.66,2.66,0,0,0-4.2-.13A3.63,3.63,0,0,0,130,194Z" style="fill:#fff;opacity:0.2"></path><path d="M156.82,225.91a3.27,3.27,0,0,1-1.37,2.78c-1.39.88-3.23.18-4.12-1.57a4,4,0,0,1,.18-4.06,4.26,4.26,0,0,0,.47,2c.89,1.74,2.73,2.44,4.11,1.57A2.82,2.82,0,0,0,156.82,225.91Z" style="fill:#fff;opacity:0.2"></path><path d="M158.41,199.46a3.26,3.26,0,0,1-1.31,2.82c-1.37.92-3.22.26-4.13-1.47a4,4,0,0,1,.1-4.08,4.39,4.39,0,0,0,.5,2c.92,1.73,2.77,2.38,4.13,1.47A2.66,2.66,0,0,0,158.41,199.46Z" style="fill:#fff;opacity:0.2"></path><polygon points="181.09 190.95 181.31 193.5 182.33 194.85 181.36 195.75 181.26 198.23 180.44 196.24 179.35 196.42 179.82 194.29 179.25 191.92 180.35 192.6 181.09 190.95" style="fill:#fff;opacity:0.2"></polygon><polygon points="183.86 218.38 184.08 220.93 185.1 222.28 184.13 223.18 184.03 225.66 183.21 223.66 182.13 223.85 182.59 221.72 182.02 219.35 183.13 220.03 183.86 218.38" style="fill:#fff;opacity:0.2"></polygon><polygon points="178.38 212.82 178.6 215.37 179.62 216.71 178.65 217.62 178.55 220.09 177.73 218.1 176.65 218.28 177.11 216.15 176.54 213.79 177.65 214.46 178.38 212.82" style="fill:#fff;opacity:0.2"></polygon><polygon points="183.63 210.53 183.75 212.02 184.35 212.81 183.78 213.34 183.73 214.79 183.25 213.63 182.61 213.73 182.88 212.48 182.55 211.1 183.2 211.49 183.63 210.53" style="fill:#fff;opacity:0.2"></polygon><polygon points="175.77 223.22 175.9 224.71 176.49 225.5 175.93 226.03 175.87 227.48 175.39 226.31 174.75 226.42 175.03 225.17 174.69 223.79 175.34 224.18 175.77 223.22" style="fill:#fff;opacity:0.2"></polygon><polygon points="184.3 183.93 184.43 185.43 185.03 186.22 184.46 186.74 184.4 188.19 183.93 187.03 183.29 187.13 183.56 185.88 183.23 184.5 183.88 184.9 184.3 183.93" style="fill:#fff;opacity:0.2"></polygon><polygon points="174.1 197.1 175.07 199.94 176.53 200.04 175.78 202.66 176.4 205.9 174.97 204.68 173.89 206.58 173.75 203.21 172.46 201.14 173.81 200.28 174.1 197.1" style="fill:#fff;opacity:0.2"></polygon><path d="M175.48,212.72a1.54,1.54,0,0,1-1.66.43,2.46,2.46,0,0,1-1.49-2.65,1.68,1.68,0,0,1,1.52-1.53,2,2,0,0,0-.46,1,2.43,2.43,0,0,0,1.49,2.64A1.59,1.59,0,0,0,175.48,212.72Z" style="fill:#fff;opacity:0.2"></path><path d="M187.23,210.25a3.28,3.28,0,0,1-.59-6,2.65,2.65,0,0,1,3.13,1,2.37,2.37,0,0,0-1.55.09,3.1,3.1,0,0,0-1.48,4A3.24,3.24,0,0,0,187.23,210.25Z" style="fill:#fff;opacity:0.2"></path><path d="M170.87,192.37a1.09,1.09,0,0,1,.79-.79,1.25,1.25,0,0,1,1.43,1,1.27,1.27,0,0,1-.47,1.36,1.35,1.35,0,0,0,0-.72,1.24,1.24,0,0,0-1.43-1A1,1,0,0,0,170.87,192.37Z" style="fill:#fff;opacity:0.2"></path><path d="M187.62,198.65a1.31,1.31,0,0,1-1.11,1.07c-.8,0-1.56-1-1.69-2.22a2.21,2.21,0,0,1,.75-2.16,3.07,3.07,0,0,0-.1,1.23c.13,1.25.89,2.24,1.69,2.22A.92.92,0,0,0,187.62,198.65Z" style="fill:#fff;opacity:0.2"></path><polygon points="188.37 214.38 189.34 217.22 190.8 217.32 190.06 219.94 190.68 223.18 189.24 221.96 188.16 223.86 188.02 220.49 186.74 218.42 188.09 217.56 188.37 214.38" style="fill:#fff;opacity:0.2"></polygon><polygon points="127.02 187.19 146.38 178.23 187 179.46 165.52 188.03 127.02 187.19" style="fill:#fff;opacity:0.2"></polygon><polygon points="185.67 226.93 180.18 181.81 140.57 180.61 136.98 182.81 173.24 185.09 180.7 229.01 185.67 226.93" style="fill:#fff"></polygon><polygon points="166.09 178.82 148.11 187.45 153.22 232.15 147.48 231.98 140.65 187.36 160.84 178.67 166.09 178.82" style="fill:#fff"></polygon><polygon points="185.67 226.93 180.18 181.81 140.57 180.61 136.98 182.81 173.24 185.09 180.7 229.01 185.67 226.93" style="fill:#263238"></polygon><polygon points="166.09 178.82 148.11 187.45 153.22 232.15 147.48 231.98 140.65 187.36 160.84 178.67 166.09 178.82" style="fill:#263238"></polygon><polygon points="180.21 182.2 173.25 185.19 180.71 229.15 185.69 227.13 180.21 182.2" style="opacity:0.2;isolation:isolate"></polygon><polygon points="140.66 187.55 148.12 187.54 153.22 232.15 147.48 231.98 140.66 187.55" style="opacity:0.1;isolation:isolate"></polygon><path d="M154.45,182s-11.4-10-15.9-7.73c-3.57,1.8-2.65,7.55,6.79,9.3-3.49.27-7.6.8-10,1.86l7.11,1.21a65,65,0,0,1,12.72-2.5,8.12,8.12,0,0,1,.19,2.89l4.78-.35s-1.53-1.66-2.76-2.89c5.48-.49,17.19-2.24,18-8.41C176.38,167.28,159.68,172.17,154.45,182Zm-15.79-6.09c1-2.11,15.17,6.78,15.17,6.78C147.5,183.52,137.66,178,138.66,175.87Zm17,6.48s13.78-12,17.49-9.13S160.14,183,155.7,182.35Z" style="fill:#263238"></path><path d="M247.89,230.62c-2.43,5.8-5.7,9.2-9.09,11.12a17.69,17.69,0,0,1-8.43,2.25,21,21,0,0,1-7.72-1.25l-3.55-1.49-39.27-16.5s-5.83-69.69,13.89-65.06c12.53,2.94,39.16,1.22,45.41,27.3C239.45,188.31,257.91,206.69,247.89,230.62Z" style="fill:#DBDBDB"></path><path d="M239.32,244s0,2.3-2.35,12.78c-1.63,7.3-32.56,67-35.21,73.35-6.8,16.25-29.88,51.85-37.73,63.77l-2.63,4-2.49-1-3-1.27-8.53-3.58s.69-1.48,1.85-4c5.43-11.84,21.3-46.87,26-62.59,1-3.47,3.3-14.27,5.48-25.16.32-1.6.57-3.2.76-4.8l0-.32c1.26-11.46,1.38-23.14-5.62-33.64-.19-.28-.23-.65-.4-.95-3-5.19-.78-13.08-.55-14.13,2.64-12.33,6.12-19,6.12-19Z" style="fill:#DBDBDB"></path><path d="M239.32,244s0,2.3-2.35,12.78c-1.63,7.3-32.56,67-35.21,73.35-6.8,16.25-29.88,51.85-37.73,63.77l-2.63,4-2.49-1-3-1.27-8.53-3.58s.69-1.48,1.85-4c5.43-11.84,21.3-46.87,26-62.59,1-3.47,3.3-14.27,5.48-25.16.32-1.6.57-3.2.76-4.8l0-.32c1.26-11.46,1.38-23.14-5.62-33.64-.19-.28-.23-.65-.4-.95-3-5.19-.78-13.08-.55-14.13,2.64-12.33,6.12-19,6.12-19Z" style="opacity:0.2"></path><polygon points="149.12 392.6 140.52 404.09 151.52 405.35 160.6 397.48 149.12 392.6" style="fill:#263238"></polygon><polygon points="156.1 401.36 160.6 397.48 149.12 392.6 146.07 396.71 156.1 401.36" style="opacity:0.2"></polygon><polygon points="148.23 387.54 165.4 394.41 163.49 397.27 161.77 399.86 145.19 393.14 146.81 390.15 148.23 387.54" style="fill:#DBDBDB"></polygon><g style="opacity:0.5"><polygon points="148.23 387.54 165.4 394.41 163.49 397.27 161.77 399.86 145.19 393.14 146.81 390.15 148.23 387.54" style="fill:#fff"></polygon></g><path d="M158.48,408.13a1,1,0,0,0-.38-.72,5,5,0,0,0-2.62-.72,11.22,11.22,0,0,0-1.27,0c-.52,0-.89,0-.93,0a.19.19,0,0,0-.19.15.22.22,0,0,0,.07.22h0a15,15,0,0,0,1.67,1c.22.12.43.23.65.33a3.7,3.7,0,0,0,2.61.5A.78.78,0,0,0,158.48,408.13Zm-.58.46c-.51.28-3.77-1.33-4-1.48l.57,0a9.61,9.61,0,0,1,3,.42.93.93,0,0,1,.33.21.62.62,0,0,1,.26.44C158.09,408.46,158,408.55,157.9,408.59Z" style="fill:#DBDBDB"></path><path d="M157,404.49a1.62,1.62,0,0,0-1.2-.17,4.57,4.57,0,0,0-2.14,1.71c-.32.41-.53.74-.55.77a.22.22,0,0,0,0,.22l.09.05h0l.08,0a4.52,4.52,0,0,0,1.12-.13,9.67,9.67,0,0,0,1.08-.29c.94-.33,1.79-.8,1.92-1.33C157.49,405.13,157.45,404.79,157,404.49Zm.09.74c-.18.49-1.68,1.14-2.89,1.35a4,4,0,0,1-.46.07l.22-.34a5,5,0,0,1,2-1.59,1.05,1.05,0,0,1,.76.08l.11,0C157.1,405,157.06,405.17,157.05,405.23Z" style="fill:#DBDBDB"></path><path d="M152.23,404.13s-8.11-4.83-8.33-4.54l-4.91,6.3c-.44.55-1.3,2.88-.75,3.32a1.14,1.14,0,0,0,.23.15c3.15,1.42,8,5.18,11.89,7,4.58,2.17,3.16,2.17,8.51,4.8,3.23,1.59,5.57-1.82,4.28-2.66C157.23,414.75,152.92,404.43,152.23,404.13Z" style="fill:#263238"></path><path d="M223.89,268.35c-2.43,7.07-.62,21.79-.62,21.79,0-.45-37.89,5-41.8,5.25l-.42,0,.45-.34.61-13.15,34.9-14Z" style="opacity:0.30000000000000004;isolation:isolate"></path><path d="M188.08,234.23c-36.63,33.12,54.52,62.14,60.95,69-7.42,19.65-12.8,43.92-17.49,56.89,3.35,1.48,6.45,6.27,10.09,6.67,11.43-22,26.52-39.1,35.52-67.87,7.44-23.78-67-60.19-66.94-60.19A35.24,35.24,0,0,0,188.08,234.23Z" style="fill:#DBDBDB"></path><path d="M188.08,234.23c-36.63,33.12,54.52,62.14,60.95,69-7.42,19.65-12.8,43.92-17.49,56.89,3.35,1.48,6.45,6.27,10.09,6.67,11.43-22,26.52-39.1,35.52-67.87,7.44-23.78-67-60.19-66.94-60.19A35.24,35.24,0,0,0,188.08,234.23Z" style="fill:#DBDBDB"></path><path d="M188.08,234.23c-36.63,33.12,54.52,62.14,60.95,69-7.42,19.65-12.8,43.92-17.49,56.89,3.35,1.48,6.45,6.27,10.09,6.67,11.43-22,26.52-39.1,35.52-67.87,7.44-23.78-67-60.19-66.94-60.19A35.24,35.24,0,0,0,188.08,234.23Z" style="opacity:0.2"></path><path d="M252.93,269.31l-37.64,16.77s-11.29-5.81-10.11-5.87S237.3,262.54,252.93,269.31Z" style="opacity:0.30000000000000004;isolation:isolate"></path><path d="M177.38,291c2.1,1.91,5.83,1.15,9,.28,11.24-3.12,50.49-17.21,61.73-20.34a21.59,21.59,0,0,0,7-2.85c2.06-1.47,3.59-3.92,3.05-6a5,5,0,0,0-4-3.24,19.53,19.53,0,0,0-5.82-.06c-9.71.88-51.93,15.28-61.35,19C182.09,279.74,171.17,285.32,177.38,291Z" style="fill:#DBDBDB"></path><path d="M179.49,230.15s-6.23,14.62-5.49,24.6,4.33,25.84,3.48,29.79,76-21.67,76-21.67-13.61-12.28-13-19.35S179.49,230.15,179.49,230.15Z" style="fill:#DBDBDB"></path><path d="M177.38,291c2.1,1.91,5.83,1.15,9,.28,11.24-3.12,50.49-17.21,61.73-20.34a21.59,21.59,0,0,0,7-2.85c2.06-1.47,3.59-3.92,3.05-6a5,5,0,0,0-4-3.24,19.53,19.53,0,0,0-5.82-.06c-9.71.88-51.93,15.28-61.35,19C182.09,279.74,171.17,285.32,177.38,291Z" style="fill:#fff;opacity:0.5"></path><polygon points="243.55 363.25 242.65 365.76 241.66 368.49 238.14 378.25 230.2 367.82 231.23 364.52 231.82 362.61 232.73 359.69 243.55 363.25" style="fill:#263238"></polygon><polygon points="242.65 365.76 241.66 368.49 231.23 364.52 231.82 362.61 242.65 365.76" style="opacity:0.2"></polygon><polygon points="229.99 355.9 247.5 360.61 244.36 366.26 229.03 361.81 229.99 355.9" style="fill:#DBDBDB"></polygon><polygon points="229.99 355.9 247.5 360.61 244.36 366.26 229.03 361.81 229.99 355.9" style="fill:#fff;opacity:0.5"></polygon><path d="M238,379.39a.23.23,0,0,1,0-.24.2.2,0,0,1,.23,0c.14.06,3.34,1.56,3.85,3a1.08,1.08,0,0,1,0,.81.79.79,0,0,1-.73.54c-.59,0-1.4-.84-2-1.73A15.5,15.5,0,0,1,238,379.39Zm.62.39c.78,1.45,2.06,3.25,2.76,3.25.09,0,.23,0,.35-.29a.55.55,0,0,0,0-.5,1.22,1.22,0,0,0-.18-.36A9.66,9.66,0,0,0,238.64,379.78Z" style="fill:#DBDBDB"></path><path d="M238,379.29a.23.23,0,0,1,.1-.19c.1-.05,2.17-1.22,3.56-.84a1.59,1.59,0,0,1,1,.74c.28.51.15.82,0,1-.7.72-3.47.1-4.46-.49a.18.18,0,0,1,0-.07A.2.2,0,0,1,238,379.29Zm4.22-.17a1.13,1.13,0,0,0-.63-.44,4.86,4.86,0,0,0-2.87.6c1.15.52,3.16.79,3.62.4,0,0,.14-.15-.05-.47l-.07-.09Z" style="fill:#DBDBDB"></path><path d="M237.62,375.94l-6.46-7.89a.76.76,0,0,0-.92-.26l-.05,0c-1.65,1.8-3.92,2.71-6.14,3.75a1.87,1.87,0,0,0-.7,3.1c2,2.78,2.91,3.27,5.38,6.79,2.92,4.14,3.5,6.62,6.86,11.55,2,3,5.75,1.15,5-.21A22.46,22.46,0,0,1,238.25,378,3.1,3.1,0,0,0,237.62,375.94Z" style="fill:#263238"></path><path d="M179.25,191.92l.37-14.34L192,169.84S194.12,182,179.25,191.92Z" style="opacity:0.2"></path><path d="M167.78,191.63c-3.49,2.64-3.9.29-6.05,11-1.95,9.69-2.21,23.84-2.21,23.84-2.71,2.38-9.67-.81-9.67-.81s-.35-31.66,2.54-37.33c5.84-11.48,21.81-23.73,32.49-27.58a19,19,0,0,1,5.43-1.09l1.92.17h0a14.77,14.77,0,0,1-8,21.23Z" style="fill:#DBDBDB"></path><path d="M159.18,226.17l2.88,4.7a1.55,1.55,0,0,1,.18.51l5.22,1.43c0,.35-.09.36-.31.64l-1.49,1.94a1.34,1.34,0,0,1-1,.51l-8.52-.06a2.35,2.35,0,0,1-1.21-.6,9,9,0,0,1-3.44-5.88c-.23-1.48-.45-2.93-.45-2.93.21-.51,3.31-1,3.86-1l3.24.09A1.32,1.32,0,0,1,159.18,226.17Z" style="fill:#ff8b7b"></path><polygon points="161.73 225.49 148.9 228.42 149.91 222.7 161.59 220.76 161.73 225.49" style="fill:#DBDBDB"></polygon><polygon points="161.73 225.49 148.9 228.42 149.91 222.7 161.59 220.76 161.73 225.49" style="fill:#fff;opacity:0.8"></polygon><path d="M195.9,115.08c-2.08.13-4.34.54-5.71,2.14s-1.48,3.65-1.57,5.65a130.9,130.9,0,0,0,.08,13.58c.06,1,.44,2.4,1.46,2.42.61,0,1.08-.52,1.46-1l5.68-7.24a6.49,6.49,0,0,0,2.9,7,8.12,8.12,0,0,0,7.63.26c3-1.42,5.14-4.33,7.08-7.13,3-4.3,4.77-9.41-.74-12.13A37.21,37.21,0,0,0,195.9,115.08Z" style="fill:#DBDBDB"></path><path d="M195.9,115.08c-2.08.13-4.34.54-5.71,2.14s-1.48,3.65-1.57,5.65a130.9,130.9,0,0,0,.08,13.58c.06,1,.44,2.4,1.46,2.42.61,0,1.08-.52,1.46-1l5.68-7.24a6.49,6.49,0,0,0,2.9,7,8.12,8.12,0,0,0,7.63.26c3-1.42,5.14-4.33,7.08-7.13,3-4.3,4.77-9.41-.74-12.13A37.21,37.21,0,0,0,195.9,115.08Z" style="opacity:0.1"></path><path d="M193.85,140.1a4.36,4.36,0,0,1-3.28,5.25,4.45,4.45,0,1,1,3.28-5.25Z" style="fill:#DBDBDB"></path><path d="M193.85,140.1a4.36,4.36,0,0,1-3.28,5.25,4.45,4.45,0,1,1,3.28-5.25Z" style="fill:#fff;opacity:0.5"></path><path d="M225.68,168.07a8.2,8.2,0,0,0-2.76-4.64,7.63,7.63,0,0,1,1.27-5L207.4,147.33c-.24,6.53-.43,11.69-3.55,14,3,3.26,8.54,9.1,15.8,11S226.14,171,225.68,168.07Z" style="fill:#ff8b7b"></path><path d="M201.64,161a4.13,4.13,0,0,0,1.62,4.16,16.44,16.44,0,0,0,4.2,2.13c5.89,2.48,12.12,6.35,15.41,11.82,2,3.24,6.84,13.28,8.37,27.38,1.55,14.33-.73,24.55-2.22,31.34-.54,2.43,2.53-.1,2.46,2.39,8.19-51.59-9-63.36-7.2-69.8.46-1.65,1.52-3.33.95-4.94-.79-2.22-3.79-2.38-6.14-2.43a29.08,29.08,0,0,1-10.33-2.1C206.85,160.21,202.68,157.53,201.64,161Z" style="fill:#DBDBDB"></path><path d="M201.64,161a4.13,4.13,0,0,0,1.62,4.16,16.44,16.44,0,0,0,4.2,2.13c5.89,2.48,12.12,6.35,15.41,11.82,2,3.24,6.84,13.28,8.37,27.38,1.55,14.33-.73,24.55-2.22,31.34-.54,2.43,2.53-.1,2.46,2.39,8.19-51.59-9-63.36-7.2-69.8.46-1.65,1.52-3.33.95-4.94-.79-2.22-3.79-2.38-6.14-2.43a29.08,29.08,0,0,1-10.33-2.1C206.85,160.21,202.68,157.53,201.64,161Z" style="fill:#fff;opacity:0.7000000000000001"></path><path d="M221,130.54c1.84-5.61,8-6.62,12-2.32s1.72,13.55-3.13,17.33S221,130.54,221,130.54Z" style="fill:#f2f2f2"></path><path d="M206.42,137c0,8.57.12,14.41,5.13,18.6,10,8.32,16.56,4.37,19.39-3.91,2.5-7.46,2.17-20.22-6.51-24.53S206.48,128.36,206.42,137Z" style="fill:#ff8b7b"></path><path d="M213.92,134.6c1.8,3-.16,13.66-3.83,12.43a58.07,58.07,0,0,1-7.26-3.11s-4.22-3.13.38-9.48S213.92,134.6,213.92,134.6Z" style="fill:#DBDBDB"></path><path d="M213.92,134.6c1.8,3-.16,13.66-3.83,12.43a58.07,58.07,0,0,1-7.26-3.11s-4.22-3.13.38-9.48S213.92,134.6,213.92,134.6Z" style="fill:#fff;opacity:0.8"></path><path d="M219.6,139.64a4.29,4.29,0,0,0-3.21-.45A8.33,8.33,0,0,0,219.6,139.64Z" style="opacity:0.2;isolation:isolate"></path><path d="M219.49,140.41a3.51,3.51,0,0,0-2.9.29A6.64,6.64,0,0,0,219.49,140.41Z" style="opacity:0.2;isolation:isolate"></path><path d="M229,133.25a38.6,38.6,0,0,0-8-1.42C225.42,132.75,229,133.25,229,133.25Z" style="opacity:0.2;isolation:isolate"></path><path d="M230,134.28s-6.11-1-9.22-.54A71.07,71.07,0,0,0,230,134.28Z" style="opacity:0.2;isolation:isolate"></path><path d="M202.14,145.79a8.76,8.76,0,0,0,5.09,4.33c2.93.91,4.51-1.69,3.79-4.49-.65-2.53-3-6-5.93-5.73a4,4,0,0,0-3.45,4.4A4.17,4.17,0,0,0,202.14,145.79Z" style="fill:#ff8b7b"></path><path d="M222.58,140.37c.07-.75-.26-1.39-.75-1.44s-.94.51-1,1.26.26,1.39.75,1.44S222.51,141.11,222.58,140.37Z" style="fill:#263238"></path><path d="M228.49,141.12c-.07.74.27,1.38.72,1.41s.93-.52,1-1.27-.26-1.39-.71-1.42S228.56,140.38,228.49,141.12Z" style="fill:#263238"></path><path d="M219.67,137a.32.32,0,0,1-.18-.12.45.45,0,0,1,.16-.59h0a4.4,4.4,0,0,1,4.05-.2.44.44,0,0,1,.19.59h0a.47.47,0,0,1-.6.18h0a3.5,3.5,0,0,0-3.18.2A.41.41,0,0,1,219.67,137Z" style="fill:#DBDBDB"></path><path d="M233,139a.47.47,0,0,1-.39-.13,3.48,3.48,0,0,0-2.94-1.2.43.43,0,0,1-.5-.36.44.44,0,0,1,.36-.5,4.34,4.34,0,0,1,3.73,1.46.42.42,0,0,1,0,.6v0A.41.41,0,0,1,233,139Z" style="fill:#DBDBDB"></path><path d="M219.67,137a.32.32,0,0,1-.18-.12.45.45,0,0,1,.16-.59h0a4.4,4.4,0,0,1,4.05-.2.44.44,0,0,1,.19.59h0a.47.47,0,0,1-.6.18h0a3.5,3.5,0,0,0-3.18.2A.41.41,0,0,1,219.67,137Z" style="fill:#fff;opacity:0.8"></path><path d="M233,139a.47.47,0,0,1-.39-.13,3.48,3.48,0,0,0-2.94-1.2.43.43,0,0,1-.5-.36.44.44,0,0,1,.36-.5,4.34,4.34,0,0,1,3.73,1.46.42.42,0,0,1,0,.6v0A.41.41,0,0,1,233,139Z" style="fill:#fff;opacity:0.8"></path><path d="M220.52,117.55c-7.72.63-14.31,6.15-18.48,12.78a13.58,13.58,0,0,0-2.3,5.68,6.09,6.09,0,0,0,2.12,5.56,33.08,33.08,0,0,1,15.82-12.79,13.82,13.82,0,0,1,5.69-1.11,6.76,6.76,0,0,1,5.12,2.57,10.41,10.41,0,0,0-.86-7.53C226.38,120.38,223.09,117.34,220.52,117.55Z" style="fill:#DBDBDB"></path><path d="M220.52,117.55c-7.72.63-14.31,6.15-18.48,12.78a13.58,13.58,0,0,0-2.3,5.68,6.09,6.09,0,0,0,2.12,5.56,33.08,33.08,0,0,1,15.82-12.79,13.82,13.82,0,0,1,5.69-1.11,6.76,6.76,0,0,1,5.12,2.57,10.41,10.41,0,0,0-.86-7.53C226.38,120.38,223.09,117.34,220.52,117.55Z" style="fill:#fff;opacity:0.5"></path><path d="M218.6,150.4a3,3,0,0,0-4.33-.59,17.66,17.66,0,0,1-3.23-7.25,11.94,11.94,0,0,1-1.77,8.95c-1,1.41-2.24,2.65-2.75,4.28s.2,3.82,1.88,4.07c-2.05,2-.77,6.12,2,6.58a5.33,5.33,0,0,0,6.39,7.8,5.21,5.21,0,0,0,9.27,0,4.61,4.61,0,0,0,6.45-5.79A5.8,5.8,0,0,0,235,157.85a4.58,4.58,0,1,0-2.78-8.6c.62-.33-3.22-1.61-3.34-1.64a25.45,25.45,0,0,0-3.49-.74A6.83,6.83,0,0,0,218.6,150.4Z" style="fill:#DBDBDB"></path><path d="M218.6,150.4a3,3,0,0,0-4.33-.59,17.66,17.66,0,0,1-3.23-7.25,11.94,11.94,0,0,1-1.77,8.95c-1,1.41-2.24,2.65-2.75,4.28s.2,3.82,1.88,4.07c-2.05,2-.77,6.12,2,6.58a5.33,5.33,0,0,0,6.39,7.8,5.21,5.21,0,0,0,9.27,0,4.61,4.61,0,0,0,6.45-5.79A5.8,5.8,0,0,0,235,157.85a4.58,4.58,0,1,0-2.78-8.6c.62-.33-3.22-1.61-3.34-1.64a25.45,25.45,0,0,0-3.49-.74A6.83,6.83,0,0,0,218.6,150.4Z" style="fill:#fff;opacity:0.8"></path><path d="M224,152.37c-.07.79.3,1.47.81,1.51s1-.56,1.05-1.35-.29-1.46-.8-1.51S224.1,151.59,224,152.37Z" style="fill:#263238"></path><path d="M226.64,141.81l.57,6.27a6.85,6.85,0,0,0,2.21-.13.83.83,0,0,0,.57-1,.72.72,0,0,0-.26-.4A14.52,14.52,0,0,1,226.64,141.81Z" style="fill:#db4040"></path><path d="M243.08,238.33s-1.61,6-4.2,6.06L225,241.7l-45.53-9.52.34-7.43C214.68,236.34,239.32,239.37,243.08,238.33Z" style="fill:#263238"></path><path d="M233.35,161.27a5.87,5.87,0,0,1,.42,1.39c.4,1.68,1,4.4,2.39,6.27,2,2.62,4.1,5.7,4.1,5.7l6.81-1.64-1-6a4.67,4.67,0,0,0-1-2.18l-2.62-3.17a3.77,3.77,0,0,0-3.92-1.24l-2.63.71s-1.54-5.65-2.1-5.77-2.09,0-1.51,1.88Z" style="fill:#ff8b7b"></path><polygon points="239.67 173.67 240.05 178.94 253.52 176.8 250.47 171.74 239.67 173.67" style="fill:#DBDBDB"></polygon><polygon points="239.67 173.67 240.05 178.94 253.52 176.8 250.47 171.74 239.67 173.67" style="fill:#fff;opacity:0.8"></polygon></g><g id="freepik--character-2--inject-31"><path d="M354,259.6l6.15,13.1s7.24,8.49,10.89,4c6-7.38,2.41-30.38,2.41-30.38l-5.22-.83-2.6,17.13S358.86,256.47,354,259.6Z" style="fill:#DBDBDB"></path><path d="M354,259.6l6.15,13.1s7.24,8.49,10.89,4c6-7.38,2.41-30.38,2.41-30.38l-5.22-.83-2.6,17.13S358.86,256.47,354,259.6Z" style="opacity:0.2;isolation:isolate"></path><path d="M368.18,245.5l-1.24-6.35,8.81-1.21s1.42,5.37-2.35,8.39Z" style="fill:#ff8b7b"></path><path d="M371.16,233.26,374,234a2.54,2.54,0,0,1,1.87,2.59l-.11,2.07-8.78.45,1.09-4.08A2.55,2.55,0,0,1,371.16,233.26Z" style="fill:#ff8b7b"></path><path d="M353.82,420.58c-5.35-.33-4.17-.81-8.73-1-3.9-.17-5.06-.35-8.2-.45a1.1,1.1,0,0,1-.31,0,1.15,1.15,0,0,1-.79-1.42l1.51-6.52,1.25-13.68,7.88.39-1.22,13.31a2.21,2.21,0,0,0,.45.68c2.31,2.36,4.57,4,10.78,5.09C357.85,417.15,357,420.79,353.82,420.58Z" style="fill:#ff8b7b"></path><path d="M353.82,420.58c-5.35-.33-4.17-.81-8.73-1-3.9-.17-5.06-.35-8.2-.45a1.1,1.1,0,0,1-.31,0,1.15,1.15,0,0,1-.79-1.42l1.51-6.52,1.25-13.68,7.88.39-1.22,13.31a2.21,2.21,0,0,0,.45.68c2.31,2.36,4.57,4,10.78,5.09C357.85,417.15,357,420.79,353.82,420.58Z" style="opacity:0.1;isolation:isolate"></path><path d="M357.26,301.58c5.49,14.18-3,85.32-6.58,96.3-.69,2.15-4,4.57-4.9,7.08l-7.61-.95a31,31,0,0,1-2.1-7.92c-.54-7.85-1.88-93.29-1.88-93.29Z" style="fill:#DBDBDB"></path><path d="M336.07,396.09c-.54-7.85-1.88-93.29-1.88-93.29l23.07-1.22c5.49,14.18-3,85.32-6.58,96.3Z" style="opacity:0.1"></path><path d="M343.18,318s2.6,6.52,4.06,8.46,3.44,71.39,3.44,71.39S344.15,344.66,343.18,318Z" style="opacity:0.2;isolation:isolate"></path><polygon points="350.01 415.82 357.89 416.2 359.54 398 351.67 397.63 350.01 415.82" style="fill:#ff8b7b"></polygon><path d="M356.46,411.2,351,411a.69.69,0,0,0-.7.51l-2.59,5a5,5,0,0,0,.13,3.26c.65,1.48,6.73.4,10.63.58,4.56.23,3.14.07,8.48.41,3.23.2,4-3.44,2.63-3.69-6.22-1.09-8.88-2.84-11.19-5.2A2.69,2.69,0,0,0,356.46,411.2Z" style="fill:#ff8b7b"></path><path d="M370.38,301.77c5.49,14.18-3,85.32-6.58,96.3-.69,2.15-4,4.57-4.91,7.08l-7.6-.95a31.26,31.26,0,0,1-2.11-7.92c-.53-7.85-1.87-93.29-1.87-93.29Z" style="fill:#DBDBDB"></path><path d="M349.18,396.28c-.53-7.85-1.87-93.29-1.87-93.29l23.07-1.22c5.49,14.18-3,85.32-6.58,96.3Z" style="opacity:0.1"></path><path d="M362.43,217.93a21.23,21.23,0,0,0,5.11,2.77,3.43,3.43,0,0,1-2.11,2Z" style="fill:#ff5652"></path><path d="M359.84,216.77a.33.33,0,0,0,.15-.25,3.85,3.85,0,0,1,2.11-2.78.49.49,0,0,0,.27-.63.48.48,0,0,0-.62-.27h0a4.81,4.81,0,0,0-2.68,3.45.47.47,0,0,0,.35.57h0A.44.44,0,0,0,359.84,216.77Z" style="fill:#263238"></path><path d="M348.19,232.72c.25,5.53-.46,11.91-4.26,14.44,0,0,1.47,6,14.45,7,14.28,1.09,7.28-5.31,7.28-5.31-6.2-2.78-8.65-7.69-7-12l-6.69-6a2.35,2.35,0,0,0-3.83,1.9Z" style="fill:#ff8b7b"></path><path d="M372.18,281.29v.08c-.08,10.85,0,26.22,0,26.22l-3.25-.86a104.76,104.76,0,0,0-22.4-3.31l-12.64-.48c2.61-15.2,2.59-21.54.33-42.54-.78-7.32,1.21-15.13,5.19-15.56l.26,0c.8,0,1.61-.1,2.44-.13,1.11-.05,2.24-.08,3.37-.07h.81c2,0,4.06,0,6.11.13,3.92.15,12.13,1,12.27,1a9.32,9.32,0,0,1,2.71,1.92,7.93,7.93,0,0,1,1.81,2.76c1.87,4.83,5.14,13.45,5,14,0,0-.64,2.14-.88,3.08s-.53,2.09-.75,3.18h0Z" style="fill:#DBDBDB"></path><path d="M372.52,270.74c-.59-11-4.6-12.63-6-18.94-.25-1.12-2.54-.76-4.19-.69-6.82.23-5.48,5.45-2.44,11.55,4.07,8.18,11.93,21.58,12.27,18.71Z" style="opacity:0.2;isolation:isolate"></path><path d="M363.83,235.46h0a12.1,12.1,0,0,1-2.16,1.87,11.72,11.72,0,0,1-2.07,1.17,14,14,0,0,1-1.36.51,11.75,11.75,0,0,1-8.25-.41,12.69,12.69,0,0,1-1.84-1c-.12-.08-.24-.15-.35-.24-3.74-2.57-5.09-6.73-7.66-12.87a9.9,9.9,0,0,1-.76-3.19,11.63,11.63,0,0,1,7.44-11.22,13.62,13.62,0,0,1,5.61-1,11.48,11.48,0,0,1,6.82,2.42,14.85,14.85,0,0,1,1.91,1.73c.29.3.55.61.82.94a18,18,0,0,1,1.46,2.11c.13.2.25.4.37.6a24.16,24.16,0,0,1,1.31,2.71,25.19,25.19,0,0,1,1,2.81,23.67,23.67,0,0,1,.85,4.81A11.16,11.16,0,0,1,363.83,235.46Z" style="fill:#ff8b7b"></path><path d="M366.08,224h0a12,12,0,0,1,.26,4.34l0,.18a.76.76,0,0,1-.16.06l-.21.1-.19.05a1.77,1.77,0,0,1-1.66-.62,4.2,4.2,0,0,1-.81-1.14h0a3.11,3.11,0,0,1-.25-.64,2.94,2.94,0,0,1-.12-1.29.78.78,0,0,1,.05-.23c.26-.83,1.12-1,1.89-1h0l.39,0,.1,0a3.14,3.14,0,0,1,.41.07Z" style="fill:#263238"></path><path d="M365.77,224v.91c-2.19.45-2.84,0-2.81,0,.26-.83,1.12-1,1.89-1h0l.39,0,.1,0A3.14,3.14,0,0,1,365.77,224Z" style="fill:#fff"></path><path d="M366,228.72c-1.28.43-2.21-.83-2.66-1.71h0c0-.08.29,0,.5,0A2.71,2.71,0,0,1,366,228.72Z" style="fill:#ba4d3c"></path><path d="M366.16,228.62l-.21.1-.19.05a1.77,1.77,0,0,1-1.66-.62,14.74,14.74,0,0,0,1.95-.08Z" style="fill:#fff"></path><path d="M351.83,237c-9,3.24-16.71-9.57-17.94-15.06-2.18-9.74,9.25-13.17,12.35-12C357,213.93,357.07,235.08,351.83,237Z" style="fill:#263238"></path><path d="M356.75,224.27s-3-3.53-5.82-1.75,1,8,5.13,7.76C356.06,230.28,360.15,228,356.75,224.27Z" style="fill:#ff8b7b"></path><path d="M364.67,245.75l-.51-.07c-3.91-.47-7.84-.77-11.76-.93-2-.08-4.07-.12-6.11-.13h-.81c.22-2-.09-3,1.28-3.67.83-.43,10.48-1.47,14.34,1.46C363.16,244,364.48,244.11,364.67,245.75Z" style="fill:#DBDBDB"></path><path d="M364.67,245.75l-.51-.07c-3.91-.47-7.84-.77-11.76-.93-2-.08-4.07-.12-6.11-.13h-.81c.22-2-.09-3,1.28-3.67.83-.43,10.48-1.47,14.34,1.46C363.16,244,364.48,244.11,364.67,245.75Z" style="opacity:0.2;isolation:isolate"></path><path d="M361.64,237.34a11.64,11.64,0,0,1-4.06-1.66,13.69,13.69,0,0,1-2.35-2s1.81,4.94,3,5.34,3.43-1.68,3.43-1.68" style="opacity:0.2;isolation:isolate"></path><path d="M374.79,245a4.56,4.56,0,0,1-3.05-1.37c-.8-.83-.84-2-1.17-3.1a5.17,5.17,0,0,1,3.46-6.43,9,9,0,0,0-1.42,5.76A8,8,0,0,0,374.79,245Z" style="opacity:0.2;isolation:isolate"></path><path d="M385,276.51c-2.49,5.2-11.52-1.33-11.52-1.33S363,264.46,357.89,257.94a9.9,9.9,0,0,1-1.58-9.55c1.35-3.53,4.11-4.39,8.54-2.58,3.59,1.48,6.53,5.29,9.33,9.78l1.73,2.8-1-11.56,5.26-.41S389.09,267.92,385,276.51Z" style="fill:#DBDBDB"></path><path d="M374.9,246.84,372.19,241l8.29-3.24s2.64,4.88-.32,8.71Z" style="fill:#ff8b7b"></path><path d="M374.91,234.24l2.9.09a2.55,2.55,0,0,1,2.43,2.08l.38,2-8.44,2.5.11-4.23A2.54,2.54,0,0,1,374.91,234.24Z" style="fill:#ff8b7b"></path><path d="M333.56,214.41c1-3.27,3.81-5.76,6.92-7.21a23.07,23.07,0,0,1,18.58-.74c2.37.9.5,8.06-5.93,10.56-3.81,1.49-12.23,5-16.34,4.31C333.07,220.68,332.59,217.54,333.56,214.41Z" style="fill:#263238"></path><path d="M335.07,219.44a4.66,4.66,0,0,1-3.89-4.37,5.42,5.42,0,0,1,.64-2.13A8.47,8.47,0,0,0,335.07,219.44Z" style="fill:#263238"></path><path d="M364.41,216.81a3.39,3.39,0,0,1-1.69.25c0-.23,0-.46-.05-.7a2.87,2.87,0,0,0,1.5-.21.24.24,0,0,1,.22,0,.3.3,0,0,1,.21.21v0A.34.34,0,0,1,364.41,216.81Z" style="fill:#263238"></path></g><g id="freepik--speech-bubble--inject-31"><path d="M321.64,201.06a3.76,3.76,0,0,1,3.31-6.75,3.76,3.76,0,0,1-2.93,6.91A2.54,2.54,0,0,1,321.64,201.06Zm.76-6a2.73,2.73,0,0,0-1.58,1.4h0a2.76,2.76,0,1,0,3.69-1.26,1.78,1.78,0,0,0-.29-.12A2.77,2.77,0,0,0,322.4,195.07Z" style="fill:#DBDBDB"></path><path d="M326.59,209.84a2.27,2.27,0,0,1-1.19-1.35,2.3,2.3,0,0,1,.11-1.8,2.33,2.33,0,0,1,1.35-1.19,2.35,2.35,0,0,1,2.88,3.27,2.3,2.3,0,0,1-1.35,1.19,2.38,2.38,0,0,1-1.56,0Zm.6-3.4a1.33,1.33,0,0,0-.78.69h0a1.34,1.34,0,0,0-.07,1,1.36,1.36,0,0,0,.69.78,1.37,1.37,0,0,0,1.82-.62,1.36,1.36,0,0,0-.62-1.82l-.14-.06A1.33,1.33,0,0,0,327.19,206.44Z" style="fill:#DBDBDB"></path><path d="M320.11,142.74c-1.85.09-8,.19-9.95-2.31a3,3,0,0,1-.48-3,3.5,3.5,0,0,1,3.89-2.52h0a11.22,11.22,0,0,1,7.32,4.22c1.25-1.9,3.65-4.75,7-4.22,2.41.38,4.13,2.33,3.84,4.35-.16,1.08-1.38,4.45-10.45,3.5l-.78,1.75Zm-6.65-5.81h0a1.53,1.53,0,0,0-1.84,1.14c-.2.65,0,.88.14,1.09,1.06,1.34,5.07,1.74,7.84,1.66A9.13,9.13,0,0,0,313.46,136.93Zm8.71,3.9c5.62.47,7.38-1,7.51-1.84s-.78-1.83-2.15-2.05l-.31,0C324.8,136.76,323,139.47,322.17,140.83Z" style="fill:#263238"></path><rect x="300.17" y="142.67" width="39.55" height="27.17" transform="translate(639.89 312.51) rotate(180)" style="fill:#DBDBDB"></rect><rect x="300.17" y="152.06" width="39.55" height="17.78" transform="translate(639.89 321.9) rotate(180)" style="opacity:0.1;isolation:isolate"></rect><rect x="324.01" y="142.67" width="15.71" height="27.17" transform="translate(663.73 312.51) rotate(180)" style="fill:#fff;opacity:0.2"></rect><rect x="298.99" y="142.67" width="41.85" height="9.39" style="fill:#DBDBDB"></rect><rect x="298.99" y="142.67" width="41.85" height="9.39" style="fill:#fff;opacity:0.1;isolation:isolate"></rect><rect x="325.27" y="142.67" width="15.56" height="9.39" style="fill:#fff;opacity:0.2"></rect><rect x="310.15" y="142.67" width="3.21" height="27.17" transform="translate(623.52 312.51) rotate(180)" style="fill:#263238"></rect><rect x="331.81" y="142.67" width="2.36" height="27.17" transform="translate(665.98 312.51) rotate(180)" style="fill:#263238"></rect><path d="M297.26,179.57a28.56,28.56,0,0,1-4.27-1.16,27.76,27.76,0,0,1,.56-52.42A31.08,31.08,0,0,1,349,138.18a22.65,22.65,0,0,1,2.33.71A24.51,24.51,0,1,1,334.7,185l-.87-.33a27.75,27.75,0,0,1-36.57-5.1Zm36.7,4.07q.54.23,1.08.42a23.51,23.51,0,1,0,13.44-45l-.31-.07-.07-.32a30.07,30.07,0,0,0-53.83-12l-.1.13-.15,0a26.76,26.76,0,0,0-.69,50.58,27.5,27.5,0,0,0,4.28,1.15l.18,0,.12.14a26.74,26.74,0,0,0,35.58,4.9l.22-.15Z" style="fill:#DBDBDB"></path></g></svg>